<svg width="21" height="20" viewBox="0 0 21 20" fill="none" xmlns="http://www.w3.org/2000/svg">
<path d="M12.0625 15C12.5703 15 13 14.6094 13 14.0625V7.5H16.3984C17.1016 7.5 17.4531 6.67969 16.9453 6.17188L11.0078 0.234375C10.7344 -0.0390625 10.2266 -0.0390625 9.95312 0.234375L4.01562 6.17188C3.50781 6.67969 3.85938 7.5 4.5625 7.5H8V14.0625C8 14.6094 8.39062 15 8.9375 15H12.0625ZM20.5 14.6875C20.5 14.1797 20.0703 13.75 19.5625 13.75H14.25V14.0625C14.25 15.2734 13.2344 16.25 12.0625 16.25H8.9375C7.72656 16.25 6.75 15.2734 6.75 14.0625V13.75H1.4375C0.890625 13.75 0.5 14.1797 0.5 14.6875V19.0625C0.5 19.6094 0.890625 20 1.4375 20H19.5625C20.0703 20 20.5 19.6094 20.5 19.0625V14.6875ZM15.6562 18.125C15.6562 18.5547 15.3047 18.9062 14.875 18.9062C14.4453 18.9062 14.0938 18.5547 14.0938 18.125C14.0938 17.6953 14.4453 17.3438 14.875 17.3438C15.3047 17.3438 15.6562 17.6953 15.6562 18.125ZM18.1562 18.125C18.1562 18.5547 17.8047 18.9062 17.375 18.9062C16.9453 18.9062 16.5938 18.5547 16.5938 18.125C16.5938 17.6953 16.9453 17.3438 17.375 17.3438C17.8047 17.3438 18.1562 17.6953 18.1562 18.125Z" fill="#1174DC"/>
</svg>
